<svg xmlns="http://www.w3.org/2000/svg" xmlns:xlink="http://www.w3.org/1999/xlink" width="80.437" height="62.552" viewBox="0 0 80.437 62.552"><defs><filter id="a" x="14.887" y="5.771" width="16.682" height="28.554" filterUnits="userSpaceOnUse"><feOffset dy="1" input="SourceAlpha"/><feGaussianBlur stdDeviation="0.5" result="b"/><feFlood flood-opacity="0.161"/><feComposite operator="in" in2="b"/><feComposite in="SourceGraphic"/></filter></defs><g transform="translate(172 -18.637)"><g transform="translate(-170 18.637)"><g transform="translate(0 12.557)" fill="none"><path d="M5,0H71.437a5,5,0,0,1,5,5V43a5,5,0,0,1-5,5H5a5,5,0,0,1-5-5V5A5,5,0,0,1,5,0Z" stroke="none"/><path d="M 4.999992370605469 -3.814697265625e-06 C 2.238578796386719 -3.814697265625e-06 -7.62939453125e-06 2.238571166992188 -7.62939453125e-06 4.999996185302734 L -7.62939453125e-06 42.99546432495117 C -7.62939453125e-06 45.75690078735352 2.238578796386719 47.99546432495117 4.999992370605469 47.99546432495117 L 71.43722534179688 47.99546432495117 C 74.19865417480469 47.99546432495117 76.43722534179688 45.75690078735352 76.43722534179688 42.99546432495117 L 76.43722534179688 4.999996185302734 C 76.43722534179688 2.238571166992188 74.19865417480469 -3.814697265625e-06 71.43722534179688 -3.814697265625e-06 L 4.999992370605469 -3.814697265625e-06 M 4.999992370605469 -2.000003814697266 L 71.43722534179688 -2.000003814697266 C 75.29704284667969 -2.000003814697266 78.43722534179688 1.140182495117188 78.43722534179688 4.999996185302734 L 78.43722534179688 42.99546432495117 C 78.43722534179688 46.85527801513672 75.29704284667969 49.99546432495117 71.43722534179688 49.99546432495117 L 4.999992370605469 49.99546432495117 C 1.140182495117188 49.99546432495117 -2.000007629394531 46.85527801513672 -2.000007629394531 42.99546432495117 L -2.000007629394531 4.999996185302734 C -2.000007629394531 1.140182495117188 1.140182495117188 -2.000003814697266 4.999992370605469 -2.000003814697266 Z" stroke="none" fill="#1b1f38"/></g><g transform="translate(6.725 0.363)"><g transform="translate(14.16 12.668)"><g transform="translate(0 10.942)" fill="#f7931b" stroke="#1b1f38" stroke-linejoin="round" stroke-width="2"><ellipse cx="14.589" cy="7.294" rx="14.589" ry="7.294" stroke="none"/><ellipse cx="14.589" cy="7.294" rx="13.589" ry="6.294" fill="none"/></g><g transform="translate(0 4.863)" fill="#f7931b" stroke="#1b1f38" stroke-linejoin="round" stroke-width="2"><ellipse cx="14.589" cy="7.902" rx="14.589" ry="7.902" stroke="none"/><ellipse cx="14.589" cy="7.902" rx="13.589" ry="6.902" fill="none"/></g><g transform="translate(0 0)" fill="#f7931b" stroke="#1b1f38" stroke-linejoin="round" stroke-width="2"><ellipse cx="14.589" cy="7.294" rx="14.589" ry="7.294" stroke="none"/><ellipse cx="14.589" cy="7.294" rx="13.589" ry="6.294" fill="none"/></g></g><g transform="translate(-0.955 -0.363)" fill="#e44c4e"><path d="M 27.53389739990234 38.88750076293945 L 3.059327125549316 38.88750076293945 C 1.92380702495575 38.88750076293945 0.9999970197677612 37.99409103393555 0.9999970197677612 36.89593887329102 L 0.9999970197677612 2.991560459136963 C 0.9999970197677612 1.893410325050354 1.92380702495575 1.000000357627869 3.059327125549316 1.000000357627869 L 27.53389739990234 1.000000357627869 C 28.66940689086914 1.000000357627869 29.59321784973145 1.893410325050354 29.59321784973145 2.991560459136963 L 29.59321784973145 36.89593887329102 C 29.59321784973145 37.99409103393555 28.66940689086914 38.88750076293945 27.53389739990234 38.88750076293945 Z" stroke="none"/><path d="M 3.059316635131836 2 C 2.47520637512207 2 1.999996185302734 2.444808959960938 1.999996185302734 2.991561889648438 L 1.999996185302734 36.89593887329102 C 1.999996185302734 37.44269180297852 2.47520637512207 37.88750076293945 3.059316635131836 37.88750076293945 L 27.53388595581055 37.88750076293945 C 28.11800765991211 37.88750076293945 28.59321784973145 37.44269180297852 28.59321784973145 36.89593887329102 L 28.59321784973145 2.991561889648438 C 28.59321784973145 2.444808959960938 28.11800765991211 2 27.53388595581055 2 L 3.059316635131836 2 M 3.059316635131836 0 L 27.53388595581055 0 C 29.22350692749023 0 30.59321784973145 1.339370727539063 30.59321784973145 2.991561889648438 L 30.59321784973145 36.89593887329102 C 30.59321784973145 38.54813003540039 29.22350692749023 39.88750076293945 27.53388595581055 39.88750076293945 L 3.059316635131836 39.88750076293945 C 1.369707107543945 39.88750076293945 -3.814697265625e-06 38.54813003540039 -3.814697265625e-06 36.89593887329102 L -3.814697265625e-06 2.991561889648438 C -3.814697265625e-06 1.339370727539063 1.369707107543945 0 3.059316635131836 0 Z" stroke="none" fill="#1b1f38"/></g><g transform="matrix(1, 0, 0, 1, -8.73, -0.36)" filter="url(#a)"><path d="M10.316-7.878a2.37,2.37,0,0,0-.585-1.685,5.294,5.294,0,0,0-1.985-1.155A23.363,23.363,0,0,1,5.331-11.77a7.7,7.7,0,0,1-1.741-1.2,4.823,4.823,0,0,1-1.131-1.594,5.372,5.372,0,0,1-.4-2.182,4.854,4.854,0,0,1,1.388-3.576A5.843,5.843,0,0,1,7.13-21.949v-2.763H9.186v2.8a5.359,5.359,0,0,1,3.559,1.9,6.294,6.294,0,0,1,1.285,4.1H10.316a3.574,3.574,0,0,0-.636-2.317,2.1,2.1,0,0,0-1.7-.768,2.16,2.16,0,0,0-1.632.6,2.292,2.292,0,0,0-.578,1.659,2.189,2.189,0,0,0,.565,1.575,6.223,6.223,0,0,0,2.1,1.213,23.282,23.282,0,0,1,2.525,1.168,7.29,7.29,0,0,1,1.67,1.239A4.8,4.8,0,0,1,13.67-9.963,5.437,5.437,0,0,1,14.03-7.9a4.832,4.832,0,0,1-1.362,3.563A5.96,5.96,0,0,1,8.916-2.727V-.158H6.873V-2.714a6.169,6.169,0,0,1-4.08-1.878A6.072,6.072,0,0,1,1.348-8.833H5.061a3.443,3.443,0,0,0,.726,2.356,2.642,2.642,0,0,0,2.088.82,2.543,2.543,0,0,0,1.786-.6A2.089,2.089,0,0,0,10.316-7.878Z" transform="translate(15.54 31.48)" fill="#dbf8d7" stroke="#273585" stroke-width="1"/></g><text transform="translate(-0.615 53.858)" fill="#1b1f38" font-size="16" font-family="Arial-BoldMT, Arial" font-weight="700" letter-spacing="-0.053em"><tspan x="0" y="0">My </tspan><tspan y="0" fill="#fff">Wallet</tspan></text></g></g></g></svg>