<svg xmlns="http://www.w3.org/2000/svg" xmlns:xlink="http://www.w3.org/1999/xlink" width="1366" height="762" viewBox="0 0 1366 762"><defs><filter id="a" x="485" y="189" width="362" height="429" filterUnits="userSpaceOnUse"><feOffset dy="3" input="SourceAlpha"/><feGaussianBlur stdDeviation="3" result="b"/><feFlood flood-opacity="0.231"/><feComposite operator="in" in2="b"/><feComposite in="SourceGraphic"/></filter><filter id="c" x="505.475" y="98.154" width="114.181" height="76.532" filterUnits="userSpaceOnUse"><feOffset dy="1" input="SourceAlpha"/><feGaussianBlur stdDeviation="1.5" result="d"/><feFlood flood-opacity="0.271"/><feComposite operator="in" in2="d"/><feComposite in="SourceGraphic"/></filter><filter id="e" x="524.642" y="97.515" width="20.787" height="36.502" filterUnits="userSpaceOnUse"><feOffset dy="1" input="SourceAlpha"/><feGaussianBlur stdDeviation="0.5" result="f"/><feFlood flood-opacity="0.161"/><feComposite operator="in" in2="f"/><feComposite in="SourceGraphic"/></filter><filter id="g" x="561.5" y="124.5" width="158" height="54" filterUnits="userSpaceOnUse"><feOffset dy="5" input="SourceAlpha"/><feGaussianBlur stdDeviation="2.5" result="h"/><feFlood flood-opacity="0.161"/><feComposite operator="in" in2="h"/><feComposite in="SourceGraphic"/></filter><clipPath id="j"><rect width="1366" height="762"/></clipPath></defs><g id="i" clip-path="url(#j)"><rect width="1366" height="762" fill="#fff"/><rect width="1366" height="762.033" fill="#1b1f38"/><g transform="matrix(1, 0, 0, 1, 0, 0)" filter="url(#a)"><rect width="344" height="411" rx="10" transform="translate(494 195)" fill="#313862" opacity="0.8"/></g><rect width="303" height="46" rx="5" transform="translate(515 313)" fill="#fff" opacity="0.8"/><rect width="303" height="46" rx="5" transform="translate(515 401)" fill="#fff" opacity="0.8"/><rect width="303" height="46" rx="10" transform="translate(515 513)" fill="#e44c4e" opacity="0.8"/><g transform="translate(-20 -4)"><g transform="matrix(1, 0, 0, 1, 20, 4)" filter="url(#c)"><g transform="translate(511.98 103.65)" fill="none"><path d="M6.619,0H94.562a6.619,6.619,0,0,1,6.619,6.619v50.3a6.619,6.619,0,0,1-6.619,6.619H6.619A6.619,6.619,0,0,1,0,56.914V6.619A6.619,6.619,0,0,1,6.619,0Z" stroke="none"/><path d="M 6.618560791015625 -7.62939453125e-06 C 2.963233947753906 -7.62939453125e-06 -7.62939453125e-06 2.963237762451172 -7.62939453125e-06 6.618564605712891 L -7.62939453125e-06 56.91369247436523 C -7.62939453125e-06 60.56903457641602 2.963233947753906 63.53226470947266 6.618560791015625 63.53226470947266 L 94.56234741210938 63.53226470947266 C 98.21768188476563 63.53226470947266 101.1808929443359 60.56903457641602 101.1808929443359 56.91369247436523 L 101.1808929443359 6.618564605712891 C 101.1808929443359 2.963237762451172 98.21768188476563 -7.62939453125e-06 94.56234741210938 -7.62939453125e-06 L 6.618560791015625 -7.62939453125e-06 M 6.618560791015625 -2.000007629394531 L 94.56234741210938 -2.000007629394531 C 99.31463623046875 -2.000007629394531 103.1808929443359 1.866264343261719 103.1808929443359 6.618564605712891 L 103.1808929443359 56.91369247436523 C 103.1808929443359 61.66599273681641 99.31463623046875 65.53226470947266 94.56234741210938 65.53226470947266 L 6.618560791015625 65.53226470947266 C 1.866264343261719 65.53226470947266 -2.000007629394531 61.66599273681641 -2.000007629394531 56.91369247436523 L -2.000007629394531 6.618564605712891 C -2.000007629394531 1.866264343261719 1.866264343261719 -2.000007629394531 6.618560791015625 -2.000007629394531 Z" stroke="none" fill="#e44c4e"/></g></g><g transform="translate(534.574 93.552)"><g transform="translate(20.009 17.25)"><g transform="translate(0 14.483)" fill="#f7931b" stroke="#1b1f38" stroke-linejoin="round" stroke-width="2"><ellipse cx="19.311" cy="9.656" rx="19.311" ry="9.656" stroke="none"/><ellipse cx="19.311" cy="9.656" rx="18.311" ry="8.656" fill="none"/></g><g transform="translate(0 6.437)" fill="#f7931b" stroke="#1b1f38" stroke-linejoin="round" stroke-width="2"><ellipse cx="19.311" cy="10.46" rx="19.311" ry="10.46" stroke="none"/><ellipse cx="19.311" cy="10.46" rx="18.311" ry="9.46" fill="none"/></g><g transform="translate(0 0)" fill="#f7931b" stroke="#1b1f38" stroke-linejoin="round" stroke-width="2"><ellipse cx="19.311" cy="9.656" rx="19.311" ry="9.656" stroke="none"/><ellipse cx="19.311" cy="9.656" rx="18.311" ry="8.656" fill="none"/></g></g><g fill="#e44c4e"><path d="M 36.44694519042969 51.79964065551758 L 4.049656391143799 51.79964065551758 C 2.368066310882568 51.79964065551758 0.9999962449073792 50.4718017578125 0.9999962449073792 48.83967208862305 L 0.9999962449073792 3.959970235824585 C 0.9999962449073792 2.327840328216553 2.368066310882568 1.000000357627869 4.049656391143799 1.000000357627869 L 36.44694519042969 1.000000357627869 C 38.12853622436523 1.000000357627869 39.49661636352539 2.327840328216553 39.49661636352539 3.959970235824585 L 39.49661636352539 48.83967208862305 C 39.49661636352539 50.4718017578125 38.12853622436523 51.79964065551758 36.44694519042969 51.79964065551758 Z" stroke="none"/><path d="M 4.049655914306641 2 C 2.919467926025391 2 1.999996185302734 2.879241943359375 1.999996185302734 3.959968566894531 L 1.999996185302734 48.83967208862305 C 1.999996185302734 49.9203987121582 2.919467926025391 50.79964065551758 4.049655914306641 50.79964065551758 L 36.44694519042969 50.79964065551758 C 37.5771369934082 50.79964065551758 38.49661636352539 49.9203987121582 38.49661636352539 48.83967208862305 L 38.49661636352539 3.959968566894531 C 38.49661636352539 2.879241943359375 37.5771369934082 2 36.44694519042969 2 L 4.049655914306641 2 M 4.049655914306641 0 L 36.44694519042969 0 C 38.68351745605469 0 40.49661636352539 1.772941589355469 40.49661636352539 3.959968566894531 L 40.49661636352539 48.83967208862305 C 40.49661636352539 51.02669906616211 38.68351745605469 52.79964065551758 36.44694519042969 52.79964065551758 L 4.049655914306641 52.79964065551758 C 1.813095092773438 52.79964065551758 -3.814697265625e-06 51.02669906616211 -3.814697265625e-06 48.83967208862305 L -3.814697265625e-06 3.959968566894531 C -3.814697265625e-06 1.772941589355469 1.813095092773438 0 4.049655914306641 0 Z" stroke="none" fill="#1b1f38"/></g><g transform="matrix(1, 0, 0, 1, -514.57, -89.55)" filter="url(#e)"><path d="M13.22-2.429a3.137,3.137,0,0,0-.774-2.23A7.008,7.008,0,0,0,9.818-6.188a30.926,30.926,0,0,1-3.2-1.393,10.186,10.186,0,0,1-2.3-1.589,6.385,6.385,0,0,1-1.5-2.11,7.112,7.112,0,0,1-.536-2.888A6.425,6.425,0,0,1,4.12-18.9,7.735,7.735,0,0,1,9-21.055v-3.657h2.721V-21a7.094,7.094,0,0,1,4.711,2.521,8.331,8.331,0,0,1,1.7,5.426H13.22a4.731,4.731,0,0,0-.842-3.067,2.776,2.776,0,0,0-2.254-1.017,2.859,2.859,0,0,0-2.16.795,3.034,3.034,0,0,0-.765,2.2,2.9,2.9,0,0,0,.748,2.085,8.238,8.238,0,0,0,2.781,1.606A30.819,30.819,0,0,1,14.07-8.914a9.65,9.65,0,0,1,2.211,1.64,6.356,6.356,0,0,1,1.378,2.085,7.2,7.2,0,0,1,.476,2.726,6.4,6.4,0,0,1-1.8,4.716A7.889,7.889,0,0,1,11.366,4.39v3.4h-2.7V4.407a8.166,8.166,0,0,1-5.4-2.486A8.037,8.037,0,0,1,1.348-3.693H6.263A4.558,4.558,0,0,0,7.224-.575,3.5,3.5,0,0,0,9.988.511a3.366,3.366,0,0,0,2.364-.795A2.766,2.766,0,0,0,13.22-2.429Z" transform="translate(525.29 123.23)" fill="#dbf8d7" stroke="#273585" stroke-width="1"/></g></g><g transform="matrix(1, 0, 0, 1, 20, 4)" filter="url(#g)"><text transform="translate(569 159)" fill="#e44c4e" font-size="33" font-family="Arial-BoldMT, Arial" font-weight="700" letter-spacing="-0.053em"><tspan x="0" y="0">My </tspan><tspan y="0" fill="#dbf8d7" font-size="35">Wallet</tspan></text></g></g><text transform="translate(671 656)" fill="#f7931b" font-size="22" font-family="Calibri"><tspan x="0" y="0">Create an account.</tspan></text><text transform="translate(683 480)" fill="#33f815" font-size="18" font-family="Calibri-Light, Calibri" font-weight="300"><tspan x="0" y="0">Forgot password?</tspan></text><text transform="translate(633 545)" fill="#fff" font-size="25" font-family="Calibri"><tspan x="0" y="0">Sign In</tspan></text><text transform="translate(518 253)" fill="#fff" font-size="30" font-family="Calibri-Bold, Calibri" font-weight="700" letter-spacing="-0.04em"><tspan x="0" y="0">Entries</tspan></text><rect width="63" height="6" transform="translate(532 259)" fill="#4e41f0"/><path d="M15.75,8H14.625V5.714A5.672,5.672,0,0,0,9,0,5.672,5.672,0,0,0,3.375,5.714V8H2.25A2.275,2.275,0,0,0,0,10.286V21.714A2.275,2.275,0,0,0,2.25,24h13.5A2.275,2.275,0,0,0,18,21.714V10.286A2.275,2.275,0,0,0,15.75,8ZM9,18.286A2.286,2.286,0,1,1,11.25,16,2.275,2.275,0,0,1,9,18.286ZM12.488,8H5.512V5.714a3.488,3.488,0,1,1,6.975,0Z" transform="translate(531 412)" fill="#313862"/><path d="M18,0H2A2,2,0,0,0,.01,2L0,14a2.006,2.006,0,0,0,2,2H18a2.006,2.006,0,0,0,2-2V2A2.006,2.006,0,0,0,18,0Zm0,4L10,9,2,4V2l8,5,8-5Z" transform="translate(531 328)" fill="#313862"/><text transform="translate(581 342)" fill="#313862" font-size="18" font-family="Calibri-Light, Calibri" font-weight="300" opacity="0.3"><tspan x="0" y="0">You Email ...</tspan></text><text transform="translate(581 430)" fill="#313862" font-size="18" font-family="Calibri-Light, Calibri" font-weight="300" opacity="0.3"><tspan x="0" y="0">Your Password ...</tspan></text></g></svg>