<svg xmlns="http://www.w3.org/2000/svg" xmlns:xlink="http://www.w3.org/1999/xlink" width="1366" height="768" viewBox="0 0 1366 768"><defs><filter id="a" x="-3" y="0" width="276" height="86" filterUnits="userSpaceOnUse"><feOffset dy="3" input="SourceAlpha"/><feGaussianBlur stdDeviation="1" result="b"/><feFlood flood-opacity="0.141"/><feComposite operator="in" in2="b"/><feComposite in="SourceGraphic"/></filter><filter id="c" x="23.5" y="16.694" width="89.437" height="60.995" filterUnits="userSpaceOnUse"><feOffset dy="1" input="SourceAlpha"/><feGaussianBlur stdDeviation="1.5" result="d"/><feFlood flood-opacity="0.271"/><feComposite operator="in" in2="d"/><feComposite in="SourceGraphic"/></filter><filter id="e" x="42.887" y="15.407" width="16.682" height="28.554" filterUnits="userSpaceOnUse"><feOffset dy="1" input="SourceAlpha"/><feGaussianBlur stdDeviation="0.5" result="f"/><feFlood flood-opacity="0.161"/><feComposite operator="in" in2="f"/><feComposite in="SourceGraphic"/></filter><filter id="g" x="28.61" y="47.358" width="82" height="33" filterUnits="userSpaceOnUse"><feOffset dy="5" input="SourceAlpha"/><feGaussianBlur stdDeviation="2.5" result="h"/><feFlood flood-opacity="0.161"/><feComposite operator="in" in2="h"/><feComposite in="SourceGraphic"/></filter><linearGradient id="i" x1="0.041" y1="0.56" x2="0.829" y2="0.6" gradientUnits="objectBoundingBox"><stop offset="0" stop-color="#ff0003"/><stop offset="1" stop-color="#722627"/></linearGradient><filter id="j" x="341" y="30" width="63" height="32" filterUnits="userSpaceOnUse"><feOffset dy="3" input="SourceAlpha"/><feGaussianBlur stdDeviation="3" result="k"/><feFlood flood-opacity="0.161"/><feComposite operator="in" in2="k"/><feComposite in="SourceGraphic"/></filter><filter id="l" x="365" y="26" width="40" height="40" filterUnits="userSpaceOnUse"><feOffset dy="3" input="SourceAlpha"/><feGaussianBlur stdDeviation="3" result="m"/><feFlood flood-opacity="0.161"/><feComposite operator="in" in2="m"/><feComposite in="SourceGraphic"/></filter><clipPath id="o"><rect width="1366" height="768"/></clipPath></defs><g id="n" clip-path="url(#o)"><rect width="1366" height="768" fill="#fff"/><rect width="1366" height="768" fill="#1b1f38"/><rect width="14" height="667" transform="translate(1324 101)" fill="#313862" opacity="0.37"/><text transform="translate(304 146)" fill="#fff" font-size="36" font-family="Calibri-Bold, Calibri" font-weight="700"><tspan x="0" y="0">Entries</tspan></text><rect width="8" height="40" rx="4" transform="translate(1327 141)" fill="#fff"/><rect width="77" height="6" transform="translate(328 158)" fill="#4e41f0"/><g transform="translate(1039.576 111)"><rect width="100" height="26" rx="5" transform="translate(0.424)" fill="#fff"/><text transform="translate(9.424 18)" fill="#707070" font-size="12" font-family="ArialMT, Arial"><tspan x="0" y="0">Julho</tspan></text><path d="M9.472,4.571,4.736,0,0,4.571" transform="translate(87.531 15.071) rotate(180)" fill="none" stroke="#707070" stroke-linecap="round" stroke-linejoin="round" stroke-width="0.8"/></g><g transform="translate(1192.309 111)"><rect width="100" height="26" rx="5" transform="translate(-0.309)" fill="#fff"/><text transform="translate(6.691 18)" fill="#707070" font-size="12" font-family="ArialMT, Arial"><tspan x="0" y="0">2020</tspan></text><path d="M9.472,4.571,4.736,0,0,4.571" transform="translate(86.531 15.071) rotate(180)" fill="none" stroke="#707070" stroke-linecap="round" stroke-linejoin="round" stroke-width="0.8"/></g><rect width="86" height="10" transform="translate(686 265)" fill="#4e41f0"/><text transform="translate(680 251)" fill="#4e41f0" font-size="24" font-family="Calibri-Bold, Calibri" font-weight="700" opacity="0.75"><tspan x="0" y="0">Recurrent</tspan></text><rect width="86" height="10" transform="translate(829 265)" fill="#f041b0"/><text transform="translate(853 251)" fill="#f041b0" font-size="24" font-family="Calibri-Bold, Calibri" font-weight="700" opacity="0.75"><tspan x="0" y="0">Any</tspan></text><rect width="990" height="90" rx="10" transform="translate(302 323)" fill="#303660"/><rect width="20" height="36" transform="translate(302 350)" fill="#4e41f0"/><text transform="translate(347 365)" fill="#fff" font-size="22" font-family="Calibri-Bold, Calibri" font-weight="700"><tspan x="0" y="0">Salario</tspan></text><text transform="translate(347 387.51)" fill="#33f815" font-size="14" font-family="ArialMT, Arial" letter-spacing="0.03em"><tspan x="0" y="0">Entrada fixa</tspan></text><text transform="translate(1230 383)" fill="#fff" font-size="28" font-family="ArialMT, Arial"><tspan x="-152.564" y="0">R$ 1.450,00</tspan></text><rect width="990" height="90" rx="10" transform="translate(302 431)" fill="#303660"/><rect width="20" height="36" transform="translate(302 458)" fill="#f041b0"/><text transform="translate(347 473)" fill="#fff" font-size="22" font-family="Calibri-Bold, Calibri" font-weight="700"><tspan x="0" y="0">Freelancer</tspan></text><text transform="translate(347 495.51)" fill="#33f815" font-size="14" font-family="ArialMT, Arial" letter-spacing="0.03em"><tspan x="0" y="0">Entrada eventual</tspan></text><text transform="translate(1230 491)" fill="#fff" font-size="28" font-family="ArialMT, Arial"><tspan x="-152.564" y="0">R$ 1.450,00</tspan></text><rect width="990" height="90" rx="10" transform="translate(302 539)" fill="#303660"/><rect width="20" height="36" transform="translate(302 566)" fill="#f041b0"/><text transform="translate(347 581)" fill="#fff" font-size="22" font-family="Calibri-Bold, Calibri" font-weight="700"><tspan x="0" y="0">Jobs - Designer</tspan></text><text transform="translate(347 603.51)" fill="#33f815" font-size="14" font-family="ArialMT, Arial" letter-spacing="0.03em"><tspan x="0" y="0">Entrada eventual</tspan></text><text transform="translate(1230 599)" fill="#fff" font-size="28" font-family="ArialMT, Arial"><tspan x="-152.551" y="0" xml:space="preserve">R$    570,00</tspan></text><rect width="990" height="90" rx="10" transform="translate(302 647)" fill="#303660"/><rect width="20" height="36" transform="translate(302 674)" fill="#4e41f0"/><text transform="translate(347 689)" fill="#fff" font-size="22" font-family="Calibri-Bold, Calibri" font-weight="700"><tspan x="0" y="0">Transfer</tspan></text><text transform="translate(347 711.51)" fill="#33f815" font-size="14" font-family="ArialMT, Arial" letter-spacing="0.03em"><tspan x="0" y="0">Entrada fixa</tspan></text><text transform="translate(1230 707)" fill="#fff" font-size="28" font-family="ArialMT, Arial"><tspan x="-113.641" y="0">R$ 50,00</tspan></text><path d="M0,0H270V768H0Z" fill="#2d3251"/><g transform="translate(0 216)"><path d="M0,10.124H8.1V0H0Zm0,8.1H8.1V12.149H0Zm10.124,0h8.1V8.1h-8.1ZM10.124,0V6.074h8.1V0Z" transform="translate(38 4)" fill="#fff" opacity="0.6"/><path d="M18.223,15.186V16.2A2.031,2.031,0,0,1,16.2,18.223H2.025A2.024,2.024,0,0,1,0,16.2V2.025A2.024,2.024,0,0,1,2.025,0H16.2a2.031,2.031,0,0,1,2.025,2.025V3.037H9.112A2.024,2.024,0,0,0,7.087,5.062v8.1a2.024,2.024,0,0,0,2.025,2.025ZM9.112,13.161H19.235v-8.1H9.112Zm4.05-2.531A1.519,1.519,0,1,1,14.68,9.112,1.517,1.517,0,0,1,13.161,10.63Z" transform="translate(38.085 63)" fill="rgba(255,255,255,0.99)" opacity="0.6"/><path d="M0,9.151l1.613,1.613L8.007,4.381V18.3h2.288V4.381l6.383,6.394L18.3,9.151,9.151,0Z" transform="translate(38 122)" fill="#fff"/><path d="M0,9.151l1.613,1.613L8.007,4.381V18.3h2.288V4.381l6.383,6.394L18.3,9.151,9.151,0Z" transform="translate(56.909 202.302) rotate(180)" fill="#fff" opacity="0.6"/><path d="M7.178,12.746l1.427,1.427,5.062-5.062L8.605,4.05,7.178,5.477,9.79,8.1H0v2.025H9.79ZM16.2,0H2.025A2.024,2.024,0,0,0,0,2.025v4.05H2.025V2.025H16.2V16.2H2.025v-4.05H0V16.2a2.024,2.024,0,0,0,2.025,2.025H16.2A2.031,2.031,0,0,0,18.223,16.2V2.025A2.031,2.031,0,0,0,16.2,0Z" transform="translate(38 246)" fill="#fff" opacity="0.6"/><text transform="translate(78 21)" fill="#fff" font-size="22" font-family="Calibri" opacity="0.6"><tspan x="0" y="0">Dashboard</tspan></text><text transform="translate(78 80)" fill="#fff" font-size="22" font-family="Calibri" opacity="0.6"><tspan x="0" y="0">New register</tspan></text><text transform="translate(78 139)" fill="#fff" font-size="22" font-family="Calibri"><tspan x="0" y="0">Entries</tspan></text><text transform="translate(78 201)" fill="#fff" font-size="22" font-family="Calibri" opacity="0.6"><tspan x="0" y="0">Exits</tspan></text><text transform="translate(78 263)" fill="#fff" font-size="22" font-family="Calibri" opacity="0.6"><tspan x="0" y="0">Quit</tspan></text><rect width="6" height="26" transform="translate(0 119)" fill="#f041b0"/></g><g transform="matrix(1, 0, 0, 1, 0, 0)" filter="url(#a)"><rect width="270" height="80" fill="#313862"/></g><g transform="translate(30 9.637)"><g transform="matrix(1, 0, 0, 1, -30, -9.64)" filter="url(#c)"><g transform="translate(30 22.19)" fill="none"><path d="M5,0H71.437a5,5,0,0,1,5,5V43a5,5,0,0,1-5,5H5a5,5,0,0,1-5-5V5A5,5,0,0,1,5,0Z" stroke="none"/><path d="M 4.999992370605469 -3.814697265625e-06 C 2.238578796386719 -3.814697265625e-06 -7.62939453125e-06 2.238571166992188 -7.62939453125e-06 4.999996185302734 L -7.62939453125e-06 42.99546432495117 C -7.62939453125e-06 45.75690078735352 2.238578796386719 47.99546432495117 4.999992370605469 47.99546432495117 L 71.43722534179688 47.99546432495117 C 74.19865417480469 47.99546432495117 76.43722534179688 45.75690078735352 76.43722534179688 42.99546432495117 L 76.43722534179688 4.999996185302734 C 76.43722534179688 2.238571166992188 74.19865417480469 -3.814697265625e-06 71.43722534179688 -3.814697265625e-06 L 4.999992370605469 -3.814697265625e-06 M 4.999992370605469 -2.000003814697266 L 71.43722534179688 -2.000003814697266 C 75.29704284667969 -2.000003814697266 78.43722534179688 1.140182495117188 78.43722534179688 4.999996185302734 L 78.43722534179688 42.99546432495117 C 78.43722534179688 46.85527801513672 75.29704284667969 49.99546432495117 71.43722534179688 49.99546432495117 L 4.999992370605469 49.99546432495117 C 1.140182495117188 49.99546432495117 -2.000007629394531 46.85527801513672 -2.000007629394531 42.99546432495117 L -2.000007629394531 4.999996185302734 C -2.000007629394531 1.140182495117188 1.140182495117188 -2.000003814697266 4.999992370605469 -2.000003814697266 Z" stroke="none" fill="#1b1f38"/></g></g><g transform="translate(5.77 0)"><g transform="translate(15.116 13.031)"><g transform="translate(0 10.942)" fill="#f7931b" stroke="#1b1f38" stroke-linejoin="round" stroke-width="2"><ellipse cx="14.589" cy="7.294" rx="14.589" ry="7.294" stroke="none"/><ellipse cx="14.589" cy="7.294" rx="13.589" ry="6.294" fill="none"/></g><g transform="translate(0 4.863)" fill="#f7931b" stroke="#1b1f38" stroke-linejoin="round" stroke-width="2"><ellipse cx="14.589" cy="7.902" rx="14.589" ry="7.902" stroke="none"/><ellipse cx="14.589" cy="7.902" rx="13.589" ry="6.902" fill="none"/></g><g fill="#f7931b" stroke="#1b1f38" stroke-linejoin="round" stroke-width="2"><ellipse cx="14.589" cy="7.294" rx="14.589" ry="7.294" stroke="none"/><ellipse cx="14.589" cy="7.294" rx="13.589" ry="6.294" fill="none"/></g></g><g fill="#e44c4e"><path d="M 27.53389739990234 38.88750076293945 L 3.059327125549316 38.88750076293945 C 1.92380702495575 38.88750076293945 0.9999970197677612 37.99409103393555 0.9999970197677612 36.89593887329102 L 0.9999970197677612 2.991560459136963 C 0.9999970197677612 1.893410325050354 1.92380702495575 1.000000357627869 3.059327125549316 1.000000357627869 L 27.53389739990234 1.000000357627869 C 28.66940689086914 1.000000357627869 29.59321784973145 1.893410325050354 29.59321784973145 2.991560459136963 L 29.59321784973145 36.89593887329102 C 29.59321784973145 37.99409103393555 28.66940689086914 38.88750076293945 27.53389739990234 38.88750076293945 Z" stroke="none"/><path d="M 3.059316635131836 2 C 2.47520637512207 2 1.999996185302734 2.444808959960938 1.999996185302734 2.991561889648438 L 1.999996185302734 36.89593887329102 C 1.999996185302734 37.44269180297852 2.47520637512207 37.88750076293945 3.059316635131836 37.88750076293945 L 27.53388595581055 37.88750076293945 C 28.11800765991211 37.88750076293945 28.59321784973145 37.44269180297852 28.59321784973145 36.89593887329102 L 28.59321784973145 2.991561889648438 C 28.59321784973145 2.444808959960938 28.11800765991211 2 27.53388595581055 2 L 3.059316635131836 2 M 3.059316635131836 0 L 27.53388595581055 0 C 29.22350692749023 0 30.59321784973145 1.339370727539063 30.59321784973145 2.991561889648438 L 30.59321784973145 36.89593887329102 C 30.59321784973145 38.54813003540039 29.22350692749023 39.88750076293945 27.53388595581055 39.88750076293945 L 3.059316635131836 39.88750076293945 C 1.369707107543945 39.88750076293945 -3.814697265625e-06 38.54813003540039 -3.814697265625e-06 36.89593887329102 L -3.814697265625e-06 2.991561889648438 C -3.814697265625e-06 1.339370727539063 1.369707107543945 0 3.059316635131836 0 Z" stroke="none" fill="#1b1f38"/></g><g transform="matrix(1, 0, 0, 1, -35.77, -9.64)" filter="url(#e)"><path d="M10.316-7.878a2.37,2.37,0,0,0-.585-1.685,5.294,5.294,0,0,0-1.985-1.155A23.363,23.363,0,0,1,5.331-11.77a7.7,7.7,0,0,1-1.741-1.2,4.823,4.823,0,0,1-1.131-1.594,5.372,5.372,0,0,1-.4-2.182,4.854,4.854,0,0,1,1.388-3.576A5.843,5.843,0,0,1,7.13-21.949v-2.763H9.186v2.8a5.359,5.359,0,0,1,3.559,1.9,6.294,6.294,0,0,1,1.285,4.1H10.316a3.574,3.574,0,0,0-.636-2.317,2.1,2.1,0,0,0-1.7-.768,2.16,2.16,0,0,0-1.632.6,2.292,2.292,0,0,0-.578,1.659,2.189,2.189,0,0,0,.565,1.575,6.223,6.223,0,0,0,2.1,1.213,23.282,23.282,0,0,1,2.525,1.168,7.29,7.29,0,0,1,1.67,1.239A4.8,4.8,0,0,1,13.67-9.963,5.437,5.437,0,0,1,14.03-7.9a4.832,4.832,0,0,1-1.362,3.563A5.96,5.96,0,0,1,8.916-2.727V-.158H6.873V-2.714a6.169,6.169,0,0,1-4.08-1.878A6.072,6.072,0,0,1,1.348-8.833H5.061a3.443,3.443,0,0,0,.726,2.356,2.642,2.642,0,0,0,2.088.82,2.543,2.543,0,0,0,1.786-.6A2.089,2.089,0,0,0,10.316-7.878Z" transform="translate(43.54 41.12)" fill="#dbf8d7" stroke="#273585" stroke-width="1"/></g><g transform="matrix(1, 0, 0, 1, -35.77, -9.64)" filter="url(#g)"><text transform="translate(36.11 63.86)" fill="#1b1f38" font-size="16" font-family="Arial-BoldMT, Arial" font-weight="700" letter-spacing="-0.053em"><tspan x="0" y="0">My</tspan><tspan y="0" xml:space="preserve" fill="#dbf8d7"> Wallet</tspan></text></g></g></g><g transform="translate(6 2)"><rect width="1096" height="80" transform="translate(264 -2)" fill="#313862" opacity="0.96"/><g transform="translate(30 1)"><g transform="matrix(1, 0, 0, 1, -36, -3)" filter="url(#j)"><g transform="translate(350 36)" stroke="#fff" stroke-width="1" fill="url(#i)"><rect width="45" height="14" rx="7" stroke="none"/><rect x="0.5" y="0.5" width="44" height="13" rx="6.5" fill="none"/></g></g><g transform="matrix(1, 0, 0, 1, -36, -3)" filter="url(#l)"><g transform="translate(374 32)" fill="#fff" stroke="#f7931b" stroke-width="1"><circle cx="11" cy="11" r="11" stroke="none"/><circle cx="11" cy="11" r="10.5" fill="none"/></g></g></g><text transform="translate(406 45)" fill="#fff" font-size="13" font-family="Calibri"><tspan x="0" y="0">Dark</tspan></text><text transform="translate(303 45)" fill="#fff" font-size="13" font-family="Calibri"><tspan x="0" y="0">Light</tspan></text><g transform="translate(17 -5)"><text transform="translate(1122 42)" fill="#fff" font-size="20" font-family="Calibri-Bold, Calibri" font-weight="700"><tspan x="0" y="0">Be Welcome,</tspan></text><text transform="translate(1122 66)" fill="#fff" font-size="15" font-family="Calibri" opacity="0.6"><tspan x="0" y="0">Adelto Oliveira</tspan></text></g><text transform="matrix(0.996, 0.087, -0.087, 0.996, 1255, 38)" fill="#fff" font-size="25" font-family="SegoeUIEmoji, Segoe UI Emoji" opacity="0.9"><tspan x="0" y="0">😀</tspan></text></g></g></svg>